# MagicaVoxel @ Ephtracy

# group
o 

# material
mtllib protestorhead test-4.mtl
usemtl palette

# normals
vn -1 0 0
vn 1 0 0
vn 0 0 1
vn 0 0 -1
vn 0 -1 0
vn 0 1 0

# texcoords
vt 0.00195313 0.5
vt 0.0332031 0.5
vt 0.0800781 0.5
vt 0.107422 0.5

# verts
v -0.4 0.7 0.3
v -0.4 0.7 -0.2
v -0.4 0.9 0.3
v -0.4 0.9 -0.2
v -0.4 1 0
v -0.4 1 -0.1
v -0.4 1.1 0.1
v -0.4 1.1 0
v -0.4 1.1 -0.1
v -0.4 1.2 0.1
v -0.4 1.2 0
v -0.4 1.6 0.3
v -0.4 1.6 -0.2
v -0.3 0.6 0.2
v -0.3 0.6 -0.1
v -0.3 0.7 0.2
v -0.3 0.7 -0.1
v -0.3 0.9 -0.2
v -0.3 0.9 -0.3
v -0.3 1.5 0.4
v -0.3 1.5 0.3
v -0.3 1.6 0.4
v -0.3 1.6 0.3
v -0.3 1.6 -0.2
v -0.3 1.6 -0.3
v -0.2 0.6 0.3
v -0.2 0.6 0.2
v -0.2 0.6 -0.1
v -0.2 0.6 -0.2
v -0.2 0.7 0.3
v -0.2 0.7 0.2
v -0.2 0.7 -0.1
v -0.2 0.7 -0.2
v -0.2 1.4 0.4
v -0.2 1.4 0.3
v -0.2 1.5 0.4
v -0.2 1.5 0.3
v -0.1 1.3 0.4
v -0.1 1.3 0.3
v -0.1 1.4 0.4
v -0.1 1.4 0.3
v 0.1 1 -0.2
v 0.1 1 -0.3
v 0.1 1.1 -0.2
v 0.1 1.1 -0.3
v 0.1 1.2 -0.2
v 0.1 1.2 -0.3
v 0.1 1.3 -0.2
v 0.1 1.3 -0.3
v 0.1 1.4 -0.2
v 0.1 1.4 -0.3
v 0.1 1.5 -0.2
v 0.1 1.5 -0.3
v 0.2 0.9 -0.2
v 0.2 0.9 -0.3
v 0.2 1 -0.2
v 0.2 1 -0.3
v 0.2 1.5 -0.2
v 0.2 1.5 -0.3
v 0.2 1.6 -0.2
v 0.2 1.6 -0.3
v -0.2 0.9 -0.2
v -0.2 0.9 -0.3
v -0.2 1 -0.2
v -0.2 1 -0.3
v -0.2 1.5 -0.2
v -0.2 1.5 -0.3
v -0.2 1.6 -0.2
v -0.2 1.6 -0.3
v -0.1 1 -0.2
v -0.1 1 -0.3
v -0.1 1.5 -0.2
v -0.1 1.5 -0.3
v 0.1 1.3 0.4
v 0.1 1.3 0.3
v 0.1 1.4 0.4
v 0.1 1.4 0.3
v 0.2 0.6 0.3
v 0.2 0.6 0.2
v 0.2 0.6 -0.1
v 0.2 0.6 -0.2
v 0.2 0.7 0.3
v 0.2 0.7 0.2
v 0.2 0.7 -0.1
v 0.2 0.7 -0.2
v 0.2 1.4 0.4
v 0.2 1.4 0.3
v 0.2 1.5 0.4
v 0.2 1.5 0.3
v 0.3 0.6 0.2
v 0.3 0.6 -0.1
v 0.3 0.7 0.2
v 0.3 0.7 -0.1
v 0.3 0.9 -0.2
v 0.3 0.9 -0.3
v 0.3 1.5 0.4
v 0.3 1.5 0.3
v 0.3 1.6 0.4
v 0.3 1.6 0.3
v 0.3 1.6 -0.2
v 0.3 1.6 -0.3
v 0.4 0.7 0.3
v 0.4 0.7 -0.2
v 0.4 0.9 0.3
v 0.4 0.9 -0.2
v 0.4 1 0
v 0.4 1 -0.1
v 0.4 1.1 0.1
v 0.4 1.1 0
v 0.4 1.1 -0.1
v 0.4 1.2 0.1
v 0.4 1.2 0
v 0.4 1.6 0.3
v 0.4 1.6 -0.2
v -0.3 1.5 0.4
v -0.3 1.6 0.4
v -0.2 1.4 0.4
v -0.2 1.5 0.4
v -0.1 1.3 0.4
v -0.1 1.4 0.4
v 0.1 1.3 0.4
v 0.1 1.4 0.4
v 0.2 1.4 0.4
v 0.2 1.5 0.4
v 0.3 1.5 0.4
v 0.3 1.6 0.4
v -0.4 0.7 0.3
v -0.4 0.9 0.3
v -0.4 1.6 0.3
v -0.3 1.5 0.3
v -0.3 1.6 0.3
v -0.2 0.6 0.3
v -0.2 0.7 0.3
v -0.2 1.4 0.3
v -0.2 1.5 0.3
v -0.1 1.3 0.3
v -0.1 1.4 0.3
v 0.1 1.3 0.3
v 0.1 1.4 0.3
v 0.2 0.6 0.3
v 0.2 0.7 0.3
v 0.2 1.4 0.3
v 0.2 1.5 0.3
v 0.3 1.5 0.3
v 0.3 1.6 0.3
v 0.4 0.7 0.3
v 0.4 0.9 0.3
v 0.4 1.6 0.3
v -0.3 0.6 0.2
v -0.3 0.7 0.2
v -0.2 0.6 0.2
v -0.2 0.7 0.2
v 0.2 0.6 0.2
v 0.2 0.7 0.2
v 0.3 0.6 0.2
v 0.3 0.7 0.2
v -0.3 0.6 -0.1
v -0.3 0.7 -0.1
v -0.2 0.6 -0.1
v -0.2 0.7 -0.1
v 0.2 0.6 -0.1
v 0.2 0.7 -0.1
v 0.3 0.6 -0.1
v 0.3 0.7 -0.1
v -0.4 0.7 -0.2
v -0.4 0.9 -0.2
v -0.4 1.6 -0.2
v -0.3 0.9 -0.2
v -0.3 1.6 -0.2
v -0.2 0.6 -0.2
v -0.2 0.7 -0.2
v -0.2 0.9 -0.2
v -0.2 1 -0.2
v -0.2 1.5 -0.2
v -0.2 1.6 -0.2
v -0.1 1 -0.2
v -0.1 1.5 -0.2
v 0.1 1 -0.2
v 0.1 1.1 -0.2
v 0.1 1.2 -0.2
v 0.1 1.3 -0.2
v 0.1 1.4 -0.2
v 0.1 1.5 -0.2
v 0.2 0.6 -0.2
v 0.2 0.7 -0.2
v 0.2 0.9 -0.2
v 0.2 1 -0.2
v 0.2 1.5 -0.2
v 0.2 1.6 -0.2
v 0.3 0.9 -0.2
v 0.3 1.6 -0.2
v 0.4 0.7 -0.2
v 0.4 0.9 -0.2
v 0.4 1.6 -0.2
v -0.3 0.9 -0.3
v -0.3 1.6 -0.3
v -0.2 0.9 -0.3
v -0.2 1 -0.3
v -0.2 1.5 -0.3
v -0.2 1.6 -0.3
v -0.1 1 -0.3
v -0.1 1.5 -0.3
v 0.1 1 -0.3
v 0.1 1.1 -0.3
v 0.1 1.2 -0.3
v 0.1 1.3 -0.3
v 0.1 1.4 -0.3
v 0.1 1.5 -0.3
v 0.2 0.9 -0.3
v 0.2 1 -0.3
v 0.2 1.1 -0.3
v 0.2 1.2 -0.3
v 0.2 1.3 -0.3
v 0.2 1.4 -0.3
v 0.2 1.5 -0.3
v 0.2 1.6 -0.3
v 0.3 0.9 -0.3
v 0.3 1.6 -0.3
v -0.2 0.6 0.3
v 0.2 0.6 0.3
v -0.3 0.6 0.2
v -0.2 0.6 0.2
v 0.2 0.6 0.2
v 0.3 0.6 0.2
v -0.3 0.6 -0.1
v -0.2 0.6 -0.1
v 0.2 0.6 -0.1
v 0.3 0.6 -0.1
v -0.2 0.6 -0.2
v 0.2 0.6 -0.2
v -0.4 0.7 0.3
v -0.2 0.7 0.3
v 0.2 0.7 0.3
v 0.4 0.7 0.3
v -0.3 0.7 0.2
v -0.2 0.7 0.2
v 0.2 0.7 0.2
v 0.3 0.7 0.2
v -0.3 0.7 -0.1
v -0.2 0.7 -0.1
v 0.2 0.7 -0.1
v 0.3 0.7 -0.1
v -0.4 0.7 -0.2
v -0.2 0.7 -0.2
v 0.2 0.7 -0.2
v 0.4 0.7 -0.2
v -0.3 0.9 -0.2
v -0.2 0.9 -0.2
v 0.2 0.9 -0.2
v 0.3 0.9 -0.2
v -0.3 0.9 -0.3
v -0.2 0.9 -0.3
v 0.2 0.9 -0.3
v 0.3 0.9 -0.3
v -0.2 1 -0.2
v -0.1 1 -0.2
v 0.1 1 -0.2
v 0.2 1 -0.2
v -0.2 1 -0.3
v -0.1 1 -0.3
v 0.1 1 -0.3
v 0.2 1 -0.3
v -0.1 1.3 0.4
v 0.1 1.3 0.4
v -0.1 1.3 0.3
v 0.1 1.3 0.3
v -0.2 1.4 0.4
v -0.1 1.4 0.4
v 0.1 1.4 0.4
v 0.2 1.4 0.4
v -0.2 1.4 0.3
v -0.1 1.4 0.3
v 0.1 1.4 0.3
v 0.2 1.4 0.3
v -0.3 1.5 0.4
v -0.2 1.5 0.4
v 0.2 1.5 0.4
v 0.3 1.5 0.4
v -0.3 1.5 0.3
v -0.2 1.5 0.3
v 0.2 1.5 0.3
v 0.3 1.5 0.3
v -0.2 1.5 -0.2
v -0.1 1.5 -0.2
v 0.1 1.5 -0.2
v 0.2 1.5 -0.2
v -0.2 1.5 -0.3
v -0.1 1.5 -0.3
v 0.1 1.5 -0.3
v 0.2 1.5 -0.3
v -0.3 1.6 0.4
v 0.3 1.6 0.4
v -0.4 1.6 0.3
v -0.3 1.6 0.3
v -0.2 1.6 0.3
v 0.2 1.6 0.3
v 0.3 1.6 0.3
v 0.4 1.6 0.3
v -0.3 1.6 0.2
v -0.2 1.6 0.2
v 0.2 1.6 0.2
v 0.3 1.6 0.2
v -0.3 1.6 -0.1
v -0.2 1.6 -0.1
v 0.2 1.6 -0.1
v 0.3 1.6 -0.1
v -0.4 1.6 -0.2
v -0.3 1.6 -0.2
v -0.2 1.6 -0.2
v 0.2 1.6 -0.2
v 0.3 1.6 -0.2
v 0.4 1.6 -0.2
v -0.3 1.6 -0.3
v -0.2 1.6 -0.3
v 0.2 1.6 -0.3
v 0.3 1.6 -0.3

# faces
f 3/1/1 2/1/1 1/1/1
f 4/1/1 2/1/1 3/1/1
f 5/3/1 4/3/1 3/3/1
f 6/3/1 4/3/1 5/3/1
f 7/3/1 5/3/1 3/3/1
f 8/4/1 6/4/1 5/4/1
f 8/3/1 5/3/1 7/3/1
f 9/3/1 4/3/1 6/3/1
f 9/4/1 6/4/1 8/4/1
f 10/4/1 8/4/1 7/4/1
f 10/3/1 7/3/1 3/3/1
f 11/3/1 9/3/1 8/3/1
f 11/4/1 8/4/1 10/4/1
f 12/3/1 10/3/1 3/3/1
f 12/3/1 11/3/1 10/3/1
f 13/3/1 4/3/1 9/3/1
f 13/3/1 11/3/1 12/3/1
f 13/3/1 9/3/1 11/3/1
f 16/1/1 15/1/1 14/1/1
f 17/1/1 15/1/1 16/1/1
f 22/4/1 21/4/1 20/4/1
f 23/4/1 21/4/1 22/4/1
f 24/3/1 19/3/1 18/3/1
f 25/3/1 19/3/1 24/3/1
f 30/1/1 27/1/1 26/1/1
f 31/1/1 27/1/1 30/1/1
f 32/1/1 29/1/1 28/1/1
f 33/1/1 29/1/1 32/1/1
f 36/4/1 35/4/1 34/4/1
f 37/4/1 35/4/1 36/4/1
f 40/4/1 39/4/1 38/4/1
f 41/4/1 39/4/1 40/4/1
f 44/3/1 43/3/1 42/3/1
f 45/3/1 43/3/1 44/3/1
f 46/4/1 45/4/1 44/4/1
f 47/4/1 45/4/1 46/4/1
f 48/3/1 47/3/1 46/3/1
f 49/3/1 47/3/1 48/3/1
f 50/4/1 49/4/1 48/4/1
f 51/4/1 49/4/1 50/4/1
f 52/3/1 51/3/1 50/3/1
f 53/3/1 51/3/1 52/3/1
f 56/3/1 55/3/1 54/3/1
f 57/3/1 55/3/1 56/3/1
f 60/3/1 59/3/1 58/3/1
f 61/3/1 59/3/1 60/3/1
f 62/3/2 63/3/2 64/3/2
f 64/3/2 63/3/2 65/3/2
f 66/3/2 67/3/2 68/3/2
f 68/3/2 67/3/2 69/3/2
f 70/3/2 71/3/2 72/3/2
f 72/3/2 71/3/2 73/3/2
f 74/4/2 75/4/2 76/4/2
f 76/4/2 75/4/2 77/4/2
f 78/1/2 79/1/2 82/1/2
f 82/1/2 79/1/2 83/1/2
f 80/1/2 81/1/2 84/1/2
f 84/1/2 81/1/2 85/1/2
f 86/4/2 87/4/2 88/4/2
f 88/4/2 87/4/2 89/4/2
f 90/1/2 91/1/2 92/1/2
f 92/1/2 91/1/2 93/1/2
f 96/4/2 97/4/2 98/4/2
f 98/4/2 97/4/2 99/4/2
f 94/3/2 95/3/2 100/3/2
f 100/3/2 95/3/2 101/3/2
f 102/1/2 103/1/2 104/1/2
f 104/1/2 103/1/2 105/1/2
f 104/3/2 105/3/2 106/3/2
f 106/3/2 105/3/2 107/3/2
f 104/3/2 106/3/2 108/3/2
f 106/4/2 107/4/2 109/4/2
f 108/3/2 106/3/2 109/3/2
f 107/3/2 105/3/2 110/3/2
f 109/4/2 107/4/2 110/4/2
f 108/4/2 109/4/2 111/4/2
f 104/3/2 108/3/2 111/3/2
f 109/3/2 110/3/2 112/3/2
f 111/4/2 109/4/2 112/4/2
f 104/3/2 111/3/2 113/3/2
f 111/3/2 112/3/2 113/3/2
f 110/3/2 105/3/2 114/3/2
f 113/3/2 112/3/2 114/3/2
f 112/3/2 110/3/2 114/3/2
f 118/4/3 116/4/3 115/4/3
f 120/4/3 118/4/3 117/4/3
f 121/4/3 120/4/3 119/4/3
f 122/4/3 118/4/3 120/4/3
f 122/4/3 120/4/3 121/4/3
f 123/4/3 118/4/3 122/4/3
f 124/4/3 116/4/3 118/4/3
f 124/4/3 118/4/3 123/4/3
f 125/4/3 116/4/3 124/4/3
f 126/4/3 116/4/3 125/4/3
f 130/3/3 129/3/3 128/3/3
f 131/3/3 129/3/3 130/3/3
f 133/1/3 128/1/3 127/1/3
f 134/3/3 130/3/3 128/3/3
f 135/3/3 130/3/3 134/3/3
f 136/3/3 134/3/3 128/3/3
f 137/3/3 134/3/3 136/3/3
f 138/3/3 136/3/3 128/3/3
f 140/1/3 133/1/3 132/1/3
f 141/1/3 128/1/3 133/1/3
f 141/1/3 133/1/3 140/1/3
f 142/3/3 139/3/3 138/3/3
f 144/3/3 143/3/3 142/3/3
f 146/1/3 128/1/3 141/1/3
f 147/3/3 145/3/3 144/3/3
f 147/1/3 128/1/3 146/1/3
f 147/3/3 144/3/3 142/3/3
f 147/3/3 138/3/3 128/3/3
f 147/3/3 142/3/3 138/3/3
f 148/3/3 145/3/3 147/3/3
f 151/1/3 150/1/3 149/1/3
f 152/1/3 150/1/3 151/1/3
f 155/1/3 154/1/3 153/1/3
f 156/1/3 154/1/3 155/1/3
f 157/1/4 158/1/4 159/1/4
f 159/1/4 158/1/4 160/1/4
f 161/1/4 162/1/4 163/1/4
f 163/1/4 162/1/4 164/1/4
f 165/1/4 166/1/4 168/1/4
f 166/3/4 167/3/4 168/3/4
f 168/3/4 167/3/4 169/3/4
f 165/1/4 168/1/4 171/1/4
f 171/1/4 168/1/4 172/1/4
f 172/2/4 173/2/4 176/2/4
f 174/2/4 175/2/4 177/2/4
f 172/2/4 176/2/4 178/2/4
f 176/2/4 177/2/4 178/2/4
f 178/2/4 177/2/4 179/2/4
f 179/2/4 177/2/4 180/2/4
f 180/2/4 177/2/4 181/2/4
f 181/2/4 177/2/4 182/2/4
f 177/2/4 175/2/4 183/2/4
f 182/2/4 177/2/4 183/2/4
f 170/1/4 171/1/4 184/1/4
f 171/1/4 172/1/4 184/1/4
f 184/1/4 172/1/4 185/1/4
f 172/2/4 178/2/4 186/2/4
f 185/1/4 172/1/4 186/1/4
f 186/2/4 178/2/4 187/2/4
f 183/2/4 175/2/4 188/2/4
f 188/2/4 175/2/4 189/2/4
f 185/1/4 186/1/4 190/1/4
f 185/1/4 190/1/4 192/1/4
f 190/3/4 191/3/4 193/3/4
f 192/1/4 190/1/4 193/1/4
f 193/3/4 191/3/4 194/3/4
f 195/3/4 196/3/4 197/3/4
f 197/3/4 196/3/4 198/3/4
f 198/3/4 196/3/4 199/3/4
f 199/3/4 196/3/4 200/3/4
f 198/3/4 199/3/4 201/3/4
f 201/3/4 199/3/4 202/3/4
f 203/3/4 204/3/4 210/3/4
f 204/4/4 205/4/4 211/4/4
f 210/3/4 204/3/4 211/3/4
f 205/3/4 206/3/4 212/3/4
f 211/4/4 205/4/4 212/4/4
f 206/4/4 207/4/4 213/4/4
f 212/3/4 206/3/4 213/3/4
f 207/3/4 208/3/4 214/3/4
f 213/4/4 207/4/4 214/4/4
f 214/3/4 208/3/4 215/3/4
f 214/3/4 215/3/4 217/3/4
f 215/3/4 216/3/4 217/3/4
f 213/3/4 214/3/4 217/3/4
f 212/3/4 213/3/4 217/3/4
f 211/3/4 212/3/4 217/3/4
f 210/3/4 211/3/4 217/3/4
f 209/3/4 210/3/4 217/3/4
f 217/3/4 216/3/4 218/3/4
f 222/1/5 220/1/5 219/1/5
f 223/1/5 220/1/5 222/1/5
f 225/1/5 222/1/5 221/1/5
f 225/1/5 224/1/5 223/1/5
f 225/1/5 223/1/5 222/1/5
f 226/1/5 224/1/5 225/1/5
f 227/1/5 224/1/5 226/1/5
f 228/1/5 224/1/5 227/1/5
f 229/1/5 227/1/5 226/1/5
f 230/1/5 227/1/5 229/1/5
f 235/1/5 232/1/5 231/1/5
f 236/1/5 232/1/5 235/1/5
f 237/1/5 234/1/5 233/1/5
f 238/1/5 234/1/5 237/1/5
f 239/1/5 235/1/5 231/1/5
f 242/1/5 234/1/5 238/1/5
f 243/1/5 240/1/5 239/1/5
f 243/1/5 239/1/5 231/1/5
f 244/1/5 240/1/5 243/1/5
f 245/1/5 242/1/5 241/1/5
f 246/1/5 234/1/5 242/1/5
f 246/1/5 242/1/5 245/1/5
f 251/3/5 248/3/5 247/3/5
f 252/3/5 248/3/5 251/3/5
f 253/3/5 250/3/5 249/3/5
f 254/3/5 250/3/5 253/3/5
f 259/3/5 256/3/5 255/3/5
f 260/3/5 256/3/5 259/3/5
f 261/3/5 258/3/5 257/3/5
f 262/3/5 258/3/5 261/3/5
f 265/4/5 264/4/5 263/4/5
f 266/4/5 264/4/5 265/4/5
f 271/4/5 268/4/5 267/4/5
f 272/4/5 268/4/5 271/4/5
f 273/4/5 270/4/5 269/4/5
f 274/4/5 270/4/5 273/4/5
f 279/4/5 276/4/5 275/4/5
f 280/4/5 276/4/5 279/4/5
f 281/4/5 278/4/5 277/4/5
f 282/4/5 278/4/5 281/4/5
f 283/3/6 284/3/6 287/3/6
f 287/3/6 284/3/6 288/3/6
f 285/3/6 286/3/6 289/3/6
f 289/3/6 286/3/6 290/3/6
f 291/4/6 292/4/6 294/4/6
f 294/4/6 292/4/6 295/4/6
f 295/4/6 292/4/6 296/4/6
f 296/4/6 292/4/6 297/4/6
f 293/3/6 294/3/6 299/3/6
f 294/4/6 295/4/6 299/4/6
f 295/2/6 296/2/6 300/2/6
f 299/4/6 295/4/6 300/4/6
f 296/4/6 297/4/6 301/4/6
f 300/2/6 296/2/6 301/2/6
f 297/3/6 298/3/6 302/3/6
f 301/4/6 297/4/6 302/4/6
f 300/2/6 301/2/6 303/2/6
f 299/2/6 300/2/6 303/2/6
f 301/2/6 302/2/6 303/2/6
f 293/3/6 299/3/6 303/3/6
f 303/2/6 302/2/6 304/2/6
f 304/2/6 302/2/6 305/2/6
f 302/3/6 298/3/6 306/3/6
f 305/2/6 302/2/6 306/2/6
f 293/3/6 303/3/6 307/3/6
f 303/3/6 304/3/6 307/3/6
f 307/3/6 304/3/6 308/3/6
f 304/2/6 305/2/6 309/2/6
f 308/3/6 304/3/6 309/3/6
f 305/3/6 306/3/6 310/3/6
f 309/2/6 305/2/6 310/2/6
f 306/3/6 298/3/6 311/3/6
f 310/3/6 306/3/6 311/3/6
f 311/3/6 298/3/6 312/3/6
f 308/3/6 309/3/6 313/3/6
f 313/3/6 309/3/6 314/3/6
f 310/3/6 311/3/6 315/3/6
f 315/3/6 311/3/6 316/3/6
