# MagicaVoxel @ Ephtracy

# group
o 

# material
mtllib umbrella closed.mtl
usemtl palette

# normals
vn -1 0 0
vn 1 0 0
vn 0 0 1
vn 0 0 -1
vn 0 -1 0
vn 0 1 0

# texcoords
vt 0.0410156 0.5
vt 0.0449219 0.5
vt 0.0996094 0.5
vt 0.107422 0.5

# verts
v -0.2 0.8 0.1
v -0.2 0.8 0
v -0.2 1.1 0.1
v -0.2 1.1 0
v -0.2 1.2 0.1
v -0.2 1.2 0
v -0.2 2.3 0.1
v -0.2 2.3 0
v -0.1 0 0.1
v -0.1 0 -0.2
v -0.1 0.1 0
v -0.1 0.1 -0.1
v -0.1 0.2 -0.1
v -0.1 0.2 -0.2
v -0.1 0.7 0.1
v -0.1 0.7 0
v -0.1 0.8 0.2
v -0.1 0.8 0.1
v -0.1 0.8 0
v -0.1 0.8 -0.1
v -0.1 1.1 0.2
v -0.1 1.1 0.1
v -0.1 1.1 0
v -0.1 1.1 -0.1
v -0.1 1.2 0.2
v -0.1 1.2 0.1
v -0.1 1.2 0
v -0.1 1.2 -0.1
v -0.1 2.3 0.2
v -0.1 2.3 0.1
v -0.1 2.3 0
v -0.1 2.3 -0.1
v -0.1 2.5 0.1
v -0.1 2.5 0
v 0 0 0.1
v 0 0 -0.2
v 0 0.1 0
v 0 0.1 -0.1
v 0 0.2 -0.1
v 0 0.2 -0.2
v 0 0.7 0.1
v 0 0.7 0
v 0 0.8 0.2
v 0 0.8 0.1
v 0 0.8 0
v 0 0.8 -0.1
v 0 1.1 0.2
v 0 1.1 0.1
v 0 1.1 0
v 0 1.1 -0.1
v 0 1.2 0.2
v 0 1.2 0.1
v 0 1.2 0
v 0 1.2 -0.1
v 0 2.3 0.2
v 0 2.3 0.1
v 0 2.3 0
v 0 2.3 -0.1
v 0 2.5 0.1
v 0 2.5 0
v 0.1 0.8 0.1
v 0.1 0.8 0
v 0.1 1.1 0.1
v 0.1 1.1 0
v 0.1 1.2 0.1
v 0.1 1.2 0
v 0.1 2.3 0.1
v 0.1 2.3 0
v -0.1 0.8 0.2
v -0.1 1.1 0.2
v -0.1 1.2 0.2
v -0.1 2.3 0.2
v 0 0.8 0.2
v 0 1.1 0.2
v 0 1.2 0.2
v 0 2.3 0.2
v -0.2 0.8 0.1
v -0.2 1.1 0.1
v -0.2 1.2 0.1
v -0.2 2.3 0.1
v -0.1 0 0.1
v -0.1 0.7 0.1
v -0.1 0.8 0.1
v -0.1 1.1 0.1
v -0.1 1.2 0.1
v -0.1 2.3 0.1
v -0.1 2.5 0.1
v 0 0 0.1
v 0 0.7 0.1
v 0 0.8 0.1
v 0 1.1 0.1
v 0 1.2 0.1
v 0 2.3 0.1
v 0 2.5 0.1
v 0.1 0.8 0.1
v 0.1 1.1 0.1
v 0.1 1.2 0.1
v 0.1 2.3 0.1
v -0.1 0.1 -0.1
v -0.1 0.2 -0.1
v 0 0.1 -0.1
v 0 0.2 -0.1
v -0.2 0.8 0
v -0.2 1.1 0
v -0.2 1.2 0
v -0.2 2.3 0
v -0.1 0.1 0
v -0.1 0.7 0
v -0.1 0.8 0
v -0.1 1.1 0
v -0.1 1.2 0
v -0.1 2.3 0
v -0.1 2.5 0
v 0 0.1 0
v 0 0.7 0
v 0 0.8 0
v 0 1.1 0
v 0 1.2 0
v 0 2.3 0
v 0 2.5 0
v 0.1 0.8 0
v 0.1 1.1 0
v 0.1 1.2 0
v 0.1 2.3 0
v -0.1 0.8 -0.1
v -0.1 1.1 -0.1
v -0.1 1.2 -0.1
v -0.1 2.3 -0.1
v 0 0.8 -0.1
v 0 1.1 -0.1
v 0 1.2 -0.1
v 0 2.3 -0.1
v -0.1 0 -0.2
v -0.1 0.2 -0.2
v 0 0 -0.2
v 0 0.2 -0.2
v -0.1 0 0.1
v 0 0 0.1
v -0.1 0 -0.2
v 0 0 -0.2
v -0.1 0.8 0.2
v 0 0.8 0.2
v -0.2 0.8 0.1
v -0.1 0.8 0.1
v 0 0.8 0.1
v 0.1 0.8 0.1
v -0.2 0.8 0
v -0.1 0.8 0
v 0 0.8 0
v 0.1 0.8 0
v -0.1 0.8 -0.1
v 0 0.8 -0.1
v -0.1 1.2 0.2
v 0 1.2 0.2
v -0.2 1.2 0.1
v -0.1 1.2 0.1
v 0 1.2 0.1
v 0.1 1.2 0.1
v -0.2 1.2 0
v -0.1 1.2 0
v 0 1.2 0
v 0.1 1.2 0
v -0.1 1.2 -0.1
v 0 1.2 -0.1
v -0.1 0.1 0
v 0 0.1 0
v -0.1 0.1 -0.1
v 0 0.1 -0.1
v -0.1 0.2 -0.1
v 0 0.2 -0.1
v -0.1 0.2 -0.2
v 0 0.2 -0.2
v -0.1 1.1 0.2
v 0 1.1 0.2
v -0.2 1.1 0.1
v -0.1 1.1 0.1
v 0 1.1 0.1
v 0.1 1.1 0.1
v -0.2 1.1 0
v -0.1 1.1 0
v 0 1.1 0
v 0.1 1.1 0
v -0.1 1.1 -0.1
v 0 1.1 -0.1
v -0.1 2.3 0.2
v 0 2.3 0.2
v -0.2 2.3 0.1
v -0.1 2.3 0.1
v 0 2.3 0.1
v 0.1 2.3 0.1
v -0.2 2.3 0
v -0.1 2.3 0
v 0 2.3 0
v 0.1 2.3 0
v -0.1 2.3 -0.1
v 0 2.3 -0.1
v -0.1 2.5 0.1
v 0 2.5 0.1
v -0.1 2.5 0
v 0 2.5 0

# faces
f 3/4/1 2/4/1 1/4/1
f 4/4/1 2/4/1 3/4/1
f 7/4/1 6/4/1 5/4/1
f 8/4/1 6/4/1 7/4/1
f 11/2/1 10/2/1 9/2/1
f 12/2/1 10/2/1 11/2/1
f 13/2/1 10/2/1 12/2/1
f 14/2/1 10/2/1 13/2/1
f 15/2/1 11/2/1 9/2/1
f 16/2/1 11/2/1 15/2/1
f 18/1/1 16/1/1 15/1/1
f 19/1/1 16/1/1 18/1/1
f 21/4/1 18/4/1 17/4/1
f 22/4/1 18/4/1 21/4/1
f 23/4/1 20/4/1 19/4/1
f 24/4/1 20/4/1 23/4/1
f 26/4/1 23/4/1 22/4/1
f 27/4/1 23/4/1 26/4/1
f 29/4/1 26/4/1 25/4/1
f 30/4/1 26/4/1 29/4/1
f 31/4/1 28/4/1 27/4/1
f 32/4/1 28/4/1 31/4/1
f 33/3/1 31/3/1 30/3/1
f 34/3/1 31/3/1 33/3/1
f 35/2/2 36/2/2 37/2/2
f 37/2/2 36/2/2 38/2/2
f 38/2/2 36/2/2 39/2/2
f 39/2/2 36/2/2 40/2/2
f 35/2/2 37/2/2 41/2/2
f 41/2/2 37/2/2 42/2/2
f 41/1/2 42/1/2 44/1/2
f 44/1/2 42/1/2 45/1/2
f 43/4/2 44/4/2 47/4/2
f 47/4/2 44/4/2 48/4/2
f 45/4/2 46/4/2 49/4/2
f 49/4/2 46/4/2 50/4/2
f 48/4/2 49/4/2 52/4/2
f 52/4/2 49/4/2 53/4/2
f 51/4/2 52/4/2 55/4/2
f 55/4/2 52/4/2 56/4/2
f 53/4/2 54/4/2 57/4/2
f 57/4/2 54/4/2 58/4/2
f 56/3/2 57/3/2 59/3/2
f 59/3/2 57/3/2 60/3/2
f 61/4/2 62/4/2 63/4/2
f 63/4/2 62/4/2 64/4/2
f 65/4/2 66/4/2 67/4/2
f 67/4/2 66/4/2 68/4/2
f 73/4/3 70/4/3 69/4/3
f 74/4/3 70/4/3 73/4/3
f 75/4/3 72/4/3 71/4/3
f 76/4/3 72/4/3 75/4/3
f 83/4/3 78/4/3 77/4/3
f 84/4/3 78/4/3 83/4/3
f 85/4/3 80/4/3 79/4/3
f 86/4/3 80/4/3 85/4/3
f 88/2/3 82/2/3 81/2/3
f 89/1/3 83/1/3 82/1/3
f 89/2/3 82/2/3 88/2/3
f 90/1/3 83/1/3 89/1/3
f 91/4/3 85/4/3 84/4/3
f 92/4/3 85/4/3 91/4/3
f 93/3/3 87/3/3 86/3/3
f 94/3/3 87/3/3 93/3/3
f 95/4/3 91/4/3 90/4/3
f 96/4/3 91/4/3 95/4/3
f 97/4/3 93/4/3 92/4/3
f 98/4/3 93/4/3 97/4/3
f 101/2/3 100/2/3 99/2/3
f 102/2/3 100/2/3 101/2/3
f 103/4/4 104/4/4 109/4/4
f 109/4/4 104/4/4 110/4/4
f 105/4/4 106/4/4 111/4/4
f 111/4/4 106/4/4 112/4/4
f 107/2/4 108/2/4 114/2/4
f 108/1/4 109/1/4 115/1/4
f 114/2/4 108/2/4 115/2/4
f 115/1/4 109/1/4 116/1/4
f 110/4/4 111/4/4 117/4/4
f 117/4/4 111/4/4 118/4/4
f 112/3/4 113/3/4 119/3/4
f 119/3/4 113/3/4 120/3/4
f 116/4/4 117/4/4 121/4/4
f 121/4/4 117/4/4 122/4/4
f 118/4/4 119/4/4 123/4/4
f 123/4/4 119/4/4 124/4/4
f 125/4/4 126/4/4 129/4/4
f 129/4/4 126/4/4 130/4/4
f 127/4/4 128/4/4 131/4/4
f 131/4/4 128/4/4 132/4/4
f 133/2/4 134/2/4 135/2/4
f 135/2/4 134/2/4 136/2/4
f 139/2/5 138/2/5 137/2/5
f 140/2/5 138/2/5 139/2/5
f 144/4/5 142/4/5 141/4/5
f 145/4/5 142/4/5 144/4/5
f 147/4/5 144/4/5 143/4/5
f 148/4/5 144/4/5 147/4/5
f 149/4/5 146/4/5 145/4/5
f 150/4/5 146/4/5 149/4/5
f 151/4/5 149/4/5 148/4/5
f 152/4/5 149/4/5 151/4/5
f 156/4/5 154/4/5 153/4/5
f 157/4/5 154/4/5 156/4/5
f 159/4/5 156/4/5 155/4/5
f 160/4/5 156/4/5 159/4/5
f 161/4/5 158/4/5 157/4/5
f 162/4/5 158/4/5 161/4/5
f 163/4/5 161/4/5 160/4/5
f 164/4/5 161/4/5 163/4/5
f 165/2/6 166/2/6 167/2/6
f 167/2/6 166/2/6 168/2/6
f 169/2/6 170/2/6 171/2/6
f 171/2/6 170/2/6 172/2/6
f 173/4/6 174/4/6 176/4/6
f 176/4/6 174/4/6 177/4/6
f 175/4/6 176/4/6 179/4/6
f 179/4/6 176/4/6 180/4/6
f 177/4/6 178/4/6 181/4/6
f 181/4/6 178/4/6 182/4/6
f 180/4/6 181/4/6 183/4/6
f 183/4/6 181/4/6 184/4/6
f 185/4/6 186/4/6 188/4/6
f 188/4/6 186/4/6 189/4/6
f 187/4/6 188/4/6 191/4/6
f 191/4/6 188/4/6 192/4/6
f 189/4/6 190/4/6 193/4/6
f 193/4/6 190/4/6 194/4/6
f 192/4/6 193/4/6 195/4/6
f 195/4/6 193/4/6 196/4/6
f 197/3/6 198/3/6 199/3/6
f 199/3/6 198/3/6 200/3/6
